# xmcd
# 
# Track frame offsets:
#     150
#     13181
#     33785
#     45638
#     56899
#     70308
#     84055
#     96971
#     110242
#     124621
# 
# Disc length: 1898
# 
# Revision: 0
# Processed by: cddbd v1.5.2PL0 Copyright (c) Steve Scherf et al.
# Submitted via: fre:ac v1.0.17
# 
DISCID=8107680a
DTITLE=Robin Averill - Country and Irish
DYEAR=2014
DGENRE=Country
TTITLE0=Just Enough To Keep Me Hangin' On
TTITLE1=Homes of Dunegal
TTITLE2=Oh, Lonesome Me
TTITLE3=Bless This House
TTITLE4=Four Country Roads/Pretty Little Girl From Omagh
TTITLE5=Let It Be Me
TTITLE6=Irish Dancing Days
TTITLE7=I'll Tell Me Ma
TTITLE8=It Keeps Right On A Hurtin'
TTITLE9=Red is the Rose
EXTD=
EXTT0=
EXTT1=
EXTT2=
EXTT3=
EXTT4=
EXTT5=
EXTT6=
EXTT7=
EXTT8=
EXTT9=
PLAYORDER=
